<svg xmlns="http://www.w3.org/2000/svg" viewBox="0 0 250 250">
  <defs>
    <linearGradient id="angular-gradient" x1="0%" y1="100%" x2="50%" y2="0%">
      <stop offset="0%" style="stop-color:#E23237;stop-opacity:1" />
      <stop offset="100%" style="stop-color:#B52E31;stop-opacity:1" />
    </linearGradient>
  </defs>
  <g>
    <polygon fill="url(#angular-gradient)" points="125,30 125,30 125,30 31.9,63.2 46.1,186.3 125,230 125,230 125,230 203.9,186.3 218.1,63.2" />
    <polygon fill="#C3002F" points="125,30 125,52.2 125,52.1 125,153.4 125,153.4 125,230 125,230 203.9,186.3 218.1,63.2 125,30" />
    <path fill="#FFFFFF" d="M125,52.1L66.8,182.6h0h21.7h0l11.7-29.2h49.4l11.7,29.2h0h21.7h0L125,52.1L125,52.1L125,52.1L125,52.1
      L125,52.1z M142,135.4H108l17-40.9L142,135.4z"/>
  </g>
</svg>

